# xmcd
#
# Track frame offsets:
#	150
#	15647
#	47910
#
# Disc length: 1005 seconds
#
# Revision: 0
# Processed by: cddbd v1.5.2PL0 Copyright (c) Steve Scherf et al.
# Submitted via: audiograbber 1.83.01
#
DISCID=1d03eb03
DTITLE=Mambo Manics - Mambo on 45 - Medley (Maxi)
DYEAR=1900
DGENRE=Mambo
TTITLE0=Mambo on 45 Vol. 1 (Radio edit)
TTITLE1=Mambo on 45 Vol. 2 (Maniac version)
TTITLE2=Mambo on 45 Vol. 3 (Long version)
EXTD=
EXTT0=
EXTT1=
EXTT2=
PLAYORDER=
